<svg width="35" height="34" viewBox="0 0 35 34" fill="none" xmlns="http://www.w3.org/2000/svg">
<path d="M3.29752 8.76562H30.9225C31.5093 8.76562 31.985 8.28996 31.985 7.70312V5.04688C31.985 4.46004 31.5093 3.98438 30.9225 3.98438H3.29752C2.71068 3.98438 2.23502 4.46004 2.23502 5.04688V7.70312C2.23502 8.28996 2.71068 8.76562 3.29752 8.76562ZM3.29752 19.3906H30.9225C31.5093 19.3906 31.985 18.915 31.985 18.3281V15.6719C31.985 15.085 31.5093 14.6094 30.9225 14.6094H3.29752C2.71068 14.6094 2.23502 15.085 2.23502 15.6719V18.3281C2.23502 18.915 2.71068 19.3906 3.29752 19.3906ZM3.29752 30.0156H30.9225C31.5093 30.0156 31.985 29.54 31.985 28.9531V26.2969C31.985 25.71 31.5093 25.2344 30.9225 25.2344H3.29752C2.71068 25.2344 2.23502 25.71 2.23502 26.2969V28.9531C2.23502 29.54 2.71068 30.0156 3.29752 30.0156Z" fill="#1A1F52"/>
</svg>
